<svg width="1469" height="599" viewBox="0 0 1469 599" fill="none" xmlns="http://www.w3.org/2000/svg">
<g clip-path="url(#clip0_2105_582)">
<path d="M0.0948361 133.264L73.1554 149.712C146.216 166.16 292.337 199.056 438.439 204.417C584.54 210.19 730.621 187.397 876.691 149.135C1022.76 110.872 1168.82 55.078 1314.9 27.8503C1460.97 0.210153 1607.07 0.105192 1680.12 0.0527113L1753.17 0.000230713L1753.41 330.01L1680.36 330.063C1607.31 330.115 1461.21 330.22 1315.11 330.325C1169.02 330.43 1022.92 330.535 876.822 330.64C730.724 330.745 584.627 330.85 438.529 330.955C292.432 331.06 146.335 331.165 73.2858 331.217L0.23709 331.27L0.0948361 133.264Z" fill="url(#paint0_linear_2105_582)"/>
</g>
<g clip-path="url(#clip1_2105_582)">
<path d="M0.334363 466.369L73.3712 449.816C146.408 433.263 292.482 400.157 438.575 394.586C584.669 388.603 730.782 411.186 876.907 449.239C1023.03 487.291 1169.17 542.875 1315.29 569.893C1461.4 597.323 1607.5 597.218 1680.55 597.166L1753.6 597.114L1753.36 267.103L1680.31 267.156C1607.26 267.208 1461.17 267.313 1315.07 267.418C1168.97 267.523 1022.87 267.628 876.777 267.733C730.679 267.838 584.582 267.943 438.484 268.048C292.387 268.153 146.29 268.258 73.2408 268.31L0.192109 268.363L0.334363 466.369Z" fill="url(#paint1_linear_2105_582)"/>
</g>
<defs>
<linearGradient id="paint0_linear_2105_582" x1="876.585" y1="0.629998" x2="876.822" y2="330.64" gradientUnits="userSpaceOnUse">
<stop offset="0.110577" stop-color="#004A9E"/>
<stop offset="0.673077" stop-color="#8CCBF7"/>
<stop offset="0.846154" stop-color="#99D7FF"/>
</linearGradient>
<linearGradient id="paint1_linear_2105_582" x1="877.014" y1="597.743" x2="876.777" y2="267.733" gradientUnits="userSpaceOnUse">
<stop offset="0.110577" stop-color="#004A9E"/>
<stop offset="0.673077" stop-color="#8CCBF7"/>
<stop offset="0.846154" stop-color="#99D7FF"/>
</linearGradient>
<clipPath id="clip0_2105_582">
<rect width="1753.17" height="330.01" fill="white" transform="translate(0 1.25977) rotate(-0.0411632)"/>
</clipPath>
<clipPath id="clip1_2105_582">
<rect width="1753.17" height="330.01" fill="white" transform="matrix(1 -0.000718433 -0.000718433 -1 0.429199 598.373)"/>
</clipPath>
</defs>
</svg>
