<svg width="1440" height="1243" viewBox="0 0 1440 1243" fill="none" xmlns="http://www.w3.org/2000/svg">
<g clip-path="url(#clip0_2105_686)">
<path d="M1590.97 681.728L1516.16 672.416C1441.34 663.104 1291.72 644.479 1151.03 666.747C1010.22 688.402 878.681 752.48 752.17 839.532C625.659 926.583 504.843 1039.67 374.747 1110.33C244.786 1181.61 105.879 1212 36.4261 1227.19L-33.027 1242.38L-140.23 752.291L-70.7772 737.098C-1.32393 721.906 137.582 691.521 276.489 661.137C415.395 630.752 554.302 600.367 693.208 569.982C832.115 539.598 971.021 509.213 1109.93 478.828C1248.83 448.444 1387.74 418.059 1457.19 402.866L1526.65 387.674L1590.97 681.728Z" fill="url(#paint0_linear_2105_686)"/>
</g>
<g clip-path="url(#clip1_2105_686)">
<path d="M1482.76 187.036L1418.67 226.733C1354.57 266.43 1226.39 345.823 1089.26 384.325C952.258 423.439 805.982 420.131 654.68 393.849C503.378 367.567 346.381 315.249 198.664 305.354C50.8127 294.847 -88.0937 325.232 -157.547 340.424L-227 355.617L-119.797 845.706L-50.3436 830.514C19.1096 815.321 158.016 784.937 296.922 754.552C435.829 724.167 574.735 693.783 713.642 663.398C852.548 633.013 991.455 602.628 1130.36 572.244C1269.27 541.859 1408.17 511.474 1477.63 496.282L1547.08 481.09L1482.76 187.036Z" fill="url(#paint1_linear_2105_686)"/>
</g>
<defs>
<linearGradient id="paint0_linear_2105_686" x1="800.412" y1="1060.07" x2="693.208" y2="569.982" gradientUnits="userSpaceOnUse">
<stop offset="0.110577" stop-color="#004A9E"/>
<stop offset="0.673077" stop-color="#8CCBF7"/>
<stop offset="0.846154" stop-color="#99D7FF"/>
</linearGradient>
<linearGradient id="paint1_linear_2105_686" x1="606.438" y1="173.308" x2="713.642" y2="663.398" gradientUnits="userSpaceOnUse">
<stop offset="0.110577" stop-color="#004A9E"/>
<stop offset="0.673077" stop-color="#8CCBF7"/>
<stop offset="0.846154" stop-color="#99D7FF"/>
</linearGradient>
<clipPath id="clip0_2105_686">
<rect width="1706.29" height="501.678" fill="white" transform="translate(1633.85 877.764) rotate(167.661)"/>
</clipPath>
<clipPath id="clip1_2105_686">
<rect width="1706.29" height="501.678" fill="white" transform="matrix(-0.976902 0.21369 0.21369 0.976902 1439.88 -9)"/>
</clipPath>
</defs>
</svg>
