<svg width="81" height="77" viewBox="0 0 81 77" fill="none" xmlns="http://www.w3.org/2000/svg">
<path d="M72 0H9C4.05 0 0 3.85 0 8.55556V68.4444C0 73.15 4.05 77 9 77H72C76.95 77 81 73.15 81 68.4444V8.55556C81 3.85 76.95 0 72 0ZM34.695 56.8517C34.2787 57.2482 33.7842 57.5629 33.2398 57.7775C32.6954 57.9922 32.1119 58.1027 31.5225 58.1027C30.9331 58.1027 30.3496 57.9922 29.8052 57.7775C29.2608 57.5629 28.7663 57.2482 28.35 56.8517L12.195 41.4944C11.7784 41.0984 11.4479 40.6282 11.2224 40.1108C10.997 39.5933 10.8809 39.0387 10.8809 38.4786C10.8809 37.9185 10.997 37.3639 11.2224 36.8465C11.4479 36.329 11.7784 35.8588 12.195 35.4628C12.6116 35.0667 13.1062 34.7526 13.6506 34.5382C14.1949 34.3239 14.7783 34.2136 15.3675 34.2136C15.9567 34.2136 16.5401 34.3239 17.0844 34.5382C17.6288 34.7526 18.1234 35.0667 18.54 35.4628L31.5 47.7828L62.46 18.3517C63.3014 17.5518 64.4426 17.1025 65.6325 17.1025C66.8224 17.1025 67.9636 17.5518 68.805 18.3517C69.6464 19.1515 70.1191 20.2363 70.1191 21.3675C70.1191 22.4987 69.6464 23.5835 68.805 24.3833L34.695 56.8517Z" fill="#004A9E"/>
</svg>
